<svg width="40" height="40" viewBox="0 0 40 40" fill="none" xmlns="http://www.w3.org/2000/svg">
<path d="M1.25 32.5C1.25 34.1383 1.31083 35.2717 1.39083 36.0583C1.55833 37.7167 2.88917 38.6675 4.34667 38.7167C5.11976 38.7406 5.8932 38.7517 6.66667 38.75C7.65583 38.75 8.41417 38.7358 8.98667 38.7167C10.4442 38.6675 11.775 37.7167 11.9425 36.0583C12.0225 35.2717 12.0833 34.1383 12.0833 32.5C12.0833 30.8617 12.0225 29.7283 11.9433 28.9417C11.775 27.2833 10.4433 26.3325 8.98667 26.2833C8.21357 26.2594 7.44013 26.2483 6.66667 26.25C5.8932 26.2483 5.11976 26.2594 4.34667 26.2833C2.88917 26.3325 1.55833 27.2833 1.39083 28.9417C1.31083 29.7283 1.25 30.8617 1.25 32.5ZM27.9167 26.6667C27.9167 31.405 28.0267 34.095 28.1367 35.605C28.2583 37.28 29.4817 38.5867 31.2217 38.6933C31.775 38.7267 32.4692 38.75 33.3333 38.75C34.1975 38.75 34.8917 38.7267 35.445 38.6933C37.185 38.5867 38.4083 37.28 38.53 35.605C38.64 34.095 38.75 31.405 38.75 26.6667C38.75 21.9283 38.64 19.2383 38.53 17.7283C38.4083 16.0533 37.185 14.7467 35.445 14.64C34.7418 14.5999 34.0376 14.581 33.3333 14.5833C32.4692 14.5833 31.775 14.6067 31.2217 14.64C29.4817 14.7467 28.2583 16.0533 28.1367 17.7283C28.0267 19.2383 27.9167 21.9283 27.9167 26.6667ZM14.5833 30C14.5833 32.8425 14.6658 34.6367 14.76 35.7642C14.9042 37.4708 16.21 38.6367 17.8608 38.7092C18.4142 38.7333 19.1158 38.75 20 38.75C20.8833 38.75 21.5858 38.7333 22.1392 38.7083C23.7892 38.6367 25.0958 37.4708 25.2392 35.7642C25.3342 34.6367 25.4167 32.8425 25.4167 30C25.4167 27.1575 25.3342 25.3633 25.24 24.2358C25.0958 22.5292 23.79 21.3633 22.1392 21.2908C21.4265 21.2617 20.7133 21.2481 20 21.25C19.1167 21.25 18.4142 21.2667 17.8608 21.2917C16.2108 21.3633 14.9042 22.5292 14.7608 24.2358C14.6658 25.3633 14.5833 27.1575 14.5833 30Z" fill="#8FBFFA"/>
<path d="M35.1427 1.27082C32.9643 1.1893 30.7839 1.36552 28.6469 1.79582C26.9777 2.13748 26.5252 4.14498 27.6327 5.25165L29.1252 6.74498C28.6502 7.17665 28.0352 7.74332 27.3419 8.40415C25.7261 9.94332 23.6502 12.0225 21.8711 14.1367C21.855 14.1539 21.8353 14.1673 21.8134 14.176C21.7915 14.1846 21.7679 14.1883 21.7444 14.1867C21.7235 14.1861 21.7028 14.1815 21.6836 14.1733C21.6753 14.1682 21.668 14.1618 21.6619 14.1542C20.7588 12.885 19.8193 11.6423 18.8444 10.4275C17.8152 9.15498 15.9752 8.82749 14.5727 9.77832C12.5677 11.1383 8.40357 14.2717 3.74524 19.5983C3.46302 19.9217 3.17857 20.253 2.89191 20.5925C2.60713 20.9306 2.46835 21.3681 2.50609 21.8085C2.54383 22.249 2.75501 22.6565 3.09316 22.9412C3.43131 23.226 3.86874 23.3648 4.30921 23.3271C4.74969 23.2893 5.15713 23.0781 5.44191 22.74C5.71413 22.4167 5.98524 22.1008 6.25524 21.7925C10.6002 16.8233 14.4652 13.8908 16.3269 12.6167C17.2334 13.7505 18.1082 14.9092 18.9502 16.0917C20.2819 17.9567 23.0027 17.9683 24.4211 16.2833C26.0877 14.3025 28.0652 12.3183 29.6411 10.8175C30.2483 10.2387 30.8631 9.66779 31.4852 9.10498L33.0827 10.7017C34.1894 11.8092 36.1961 11.3567 36.5386 9.68748C37.1194 6.85749 37.1136 4.37082 37.0636 3.19165C37.044 2.68846 36.8354 2.21117 36.4793 1.8551C36.1232 1.49902 35.6459 1.29037 35.1427 1.27082Z" fill="#4A90E2"/>
</svg>
