<svg width="40" height="40" viewBox="0 0 40 40" fill="none" xmlns="http://www.w3.org/2000/svg">
<g clip-path="url(#clip0_637_2028)">
<path d="M2.77734 29.3187C2.77734 32.4436 5.24557 35 8.26261 35H30.8925C33.9095 35 36.3777 32.3022 36.3777 29.1759V2.00161C36.3777 0.181589 34.1517 -0.658421 32.8987 0.601594L26.5426 6.99967H12.8057L6.27738 0.601594C5.01737 -0.658421 2.77734 0.181589 2.77734 2.00161V29.3187Z" fill="#FFBA55"/>
<path d="M9.77753 8.29749L5.85748 11.9375C5.15748 12.6375 3.89746 12.0775 3.89746 11.0975V3.81744C3.89746 2.97743 5.15748 2.41742 5.85748 3.11743L9.77753 6.75747C10.1975 7.17747 10.1975 7.87748 9.77753 8.29749ZM29.4478 8.29749L33.3678 11.9375C34.0678 12.6375 35.3278 12.0775 35.3278 11.0975V3.81744C35.3278 2.97743 34.0678 2.41742 33.3678 3.11743L29.4478 6.75747C29.0278 7.17747 29.0278 7.87748 29.4478 8.29749Z" fill="#FF822D"/>
<path d="M21.0383 20.9998H18.1178C17.9793 20.9998 17.8439 21.041 17.7288 21.118C17.6137 21.195 17.524 21.3044 17.4711 21.4324C17.4181 21.5604 17.4044 21.7013 17.4316 21.8371C17.4587 21.9729 17.5256 22.0976 17.6236 22.1954L19.0838 23.6542C19.2151 23.7855 19.3931 23.8592 19.5787 23.8592C19.7644 23.8592 19.9424 23.7855 20.0737 23.6542L21.5339 22.1954C21.632 22.0975 21.6989 21.9727 21.726 21.8367C21.7531 21.7008 21.7393 21.5598 21.6862 21.4318C21.6331 21.3037 21.5432 21.1943 21.4278 21.1174C21.3125 21.0405 21.1769 20.9996 21.0383 20.9998Z" fill="#F70A8D"/>
<path d="M0.991116 21.074C0.908846 21.032 0.819072 21.0067 0.726968 20.9995C0.634863 20.9923 0.542251 21.0035 0.454471 21.0322C0.366691 21.061 0.285479 21.1069 0.215517 21.1673C0.145555 21.2276 0.0882272 21.3012 0.0468385 21.3838C0.00544984 21.4664 -0.0191811 21.5563 -0.025634 21.6485C-0.0320869 21.7406 -0.0202341 21.8332 0.00924074 21.9207C0.0387156 22.0083 0.0852297 22.0891 0.146101 22.1586C0.206973 22.2281 0.280998 22.2849 0.363909 22.3256L5.96397 25.1257C6.04624 25.1677 6.13602 25.193 6.22812 25.2002C6.32023 25.2073 6.41284 25.1962 6.50062 25.1674C6.5884 25.1386 6.66961 25.0927 6.73957 25.0324C6.80954 24.9721 6.86686 24.8985 6.90825 24.8159C6.94964 24.7333 6.97427 24.6433 6.98072 24.5512C6.98718 24.459 6.97533 24.3665 6.94585 24.2789C6.91638 24.1914 6.86986 24.1105 6.80899 24.041C6.74812 23.9715 6.67409 23.9148 6.59118 23.874L0.991116 21.074ZM0.991116 30.7257C0.908846 30.7677 0.819072 30.7931 0.726968 30.8002C0.634863 30.8074 0.542251 30.7963 0.454471 30.7675C0.366691 30.7387 0.285479 30.6928 0.215517 30.6325C0.145555 30.5721 0.0882272 30.4985 0.0468385 30.416C0.00544984 30.3334 -0.0191811 30.2434 -0.025634 30.1512C-0.0320869 30.0591 -0.0202341 29.9666 0.00924074 29.879C0.0387156 29.7914 0.0852297 29.7106 0.146101 29.6411C0.206973 29.5716 0.280998 29.5149 0.363909 29.4741L5.96397 26.6741C6.04624 26.632 6.13602 26.6067 6.22812 26.5996C6.32023 26.5924 6.41284 26.6035 6.50062 26.6323C6.5884 26.6611 6.66961 26.707 6.73957 26.7673C6.80954 26.8277 6.86686 26.9012 6.90825 26.9838C6.94964 27.0664 6.97427 27.1564 6.98072 27.2486C6.98718 27.3407 6.97533 27.4332 6.94585 27.5208C6.91638 27.6083 6.86986 27.6892 6.80899 27.7587C6.74812 27.8282 6.67409 27.8849 6.59118 27.9257L0.991116 30.7257ZM39.1038 21.3862C39.0206 21.2206 38.8751 21.0947 38.6993 21.0362C38.5235 20.9777 38.3316 20.9913 38.1658 21.074L32.5657 23.874C32.4806 23.9134 32.4042 23.9694 32.3412 24.0387C32.2781 24.1081 32.2297 24.1895 32.1987 24.2779C32.1676 24.3664 32.1547 24.4602 32.1606 24.5537C32.1666 24.6473 32.1912 24.7387 32.2331 24.8226C32.2751 24.9064 32.3334 24.981 32.4047 25.0419C32.476 25.1027 32.5588 25.1487 32.6482 25.1769C32.7376 25.2052 32.8317 25.2152 32.925 25.2064C33.0184 25.1976 33.109 25.1702 33.1915 25.1257L38.7916 22.3256C38.9572 22.2424 39.083 22.097 39.1416 21.9211C39.2001 21.7453 39.1865 21.5534 39.1038 21.3876M38.1658 30.7257C38.2483 30.7702 38.3389 30.7977 38.4322 30.8065C38.5255 30.8153 38.6197 30.8053 38.7091 30.777C38.7985 30.7487 38.8813 30.7028 38.9526 30.6419C39.0238 30.5811 39.0822 30.5065 39.1241 30.4226C39.166 30.3388 39.1907 30.2474 39.1966 30.1538C39.2025 30.0603 39.1896 29.9665 39.1586 29.878C39.1276 29.7895 39.0791 29.7082 39.0161 29.6388C38.953 29.5694 38.8767 29.5134 38.7916 29.4741L33.1915 26.6741C33.1092 26.632 33.0195 26.6067 32.9273 26.5996C32.8352 26.5924 32.7426 26.6035 32.6549 26.6323C32.5671 26.6611 32.4859 26.707 32.4159 26.7673C32.3459 26.8277 32.2886 26.9012 32.2472 26.9838C32.2058 27.0664 32.1812 27.1564 32.1747 27.2486C32.1683 27.3407 32.1801 27.4332 32.2096 27.5208C32.2391 27.6083 32.2856 27.6892 32.3465 27.7587C32.4074 27.8282 32.4814 27.8849 32.5643 27.9257L38.1658 30.7257Z" fill="#FF6723"/>
<path d="M11.1036 14.3862C11.0629 14.3032 11.0061 14.2292 10.9366 14.1683C10.8671 14.1075 10.7863 14.061 10.6987 14.0315C10.6112 14.002 10.5187 13.9902 10.4265 13.9966C10.3343 14.0031 10.2444 14.0277 10.1618 14.0691C10.0792 14.1105 10.0056 14.1678 9.94528 14.2378C9.88495 14.3077 9.83906 14.3889 9.81027 14.4767C9.78147 14.5645 9.77033 14.6571 9.7775 14.7492C9.78467 14.8413 9.80999 14.9311 9.85202 15.0134C10.292 15.8465 10.9095 16.5729 11.6608 17.1414C11.5092 17.2729 11.3875 17.4354 11.3042 17.618C11.2209 17.8007 11.1778 17.9991 11.1778 18.1998V19.5998C11.1778 19.9711 11.3253 20.3272 11.5879 20.5898C11.8504 20.8523 12.2065 20.9998 12.5779 20.9998C12.9492 20.9998 13.3053 20.8523 13.5678 20.5898C13.8304 20.3272 13.9779 19.9711 13.9779 19.5998V18.1466C14.2019 18.1821 14.4352 18.1998 14.6779 18.1998C14.8635 18.1998 15.0416 18.1261 15.1729 17.9948C15.3041 17.8635 15.3779 17.6854 15.3779 17.4998C15.3779 17.3141 15.3041 17.1361 15.1729 17.0048C15.0416 16.8735 14.8635 16.7998 14.6779 16.7998C13.7623 16.7998 12.9811 16.4204 12.3567 15.908C11.8429 15.4881 11.4171 14.971 11.1036 14.3862ZM25.178 18.1998V18.1466C24.9466 18.1838 24.7124 18.2016 24.478 18.1998C24.2923 18.1998 24.1143 18.1261 23.983 17.9948C23.8517 17.8635 23.778 17.6854 23.778 17.4998C23.778 17.3141 23.8517 17.1361 23.983 17.0048C24.1143 16.8735 24.2923 16.7998 24.478 16.7998C25.3936 16.7998 26.1748 16.4204 26.7992 15.908C27.4292 15.3928 27.859 14.7726 28.0522 14.3862C28.093 14.3032 28.1497 14.2292 28.2192 14.1683C28.2887 14.1075 28.3696 14.061 28.4571 14.0315C28.5447 14.002 28.6372 13.9902 28.7294 13.9966C28.8215 14.0031 28.9115 14.0277 28.9941 14.0691C29.0767 14.1105 29.1503 14.1678 29.2106 14.2378C29.2709 14.3077 29.3168 14.3889 29.3456 14.4767C29.3744 14.5645 29.3855 14.6571 29.3784 14.7492C29.3712 14.8413 29.3459 14.9311 29.3039 15.0134C28.8638 15.8465 28.2464 16.5729 27.495 17.1414C27.6467 17.2729 27.7683 17.4354 27.8517 17.618C27.935 17.8007 27.9781 17.9991 27.978 18.1998V19.5998C27.978 19.9711 27.8305 20.3272 27.568 20.5898C27.3054 20.8523 26.9493 20.9998 26.578 20.9998C26.2067 20.9998 25.8506 20.8523 25.5881 20.5898C25.3255 20.3272 25.178 19.9711 25.178 19.5998V18.1998ZM28.678 23.7999C28.8637 23.7999 29.0417 23.8736 29.173 24.0049C29.3043 24.1362 29.3781 24.3142 29.3781 24.4999C29.3781 26.6965 28.3882 28.2883 27.103 29.3159C25.8416 30.3253 24.2876 30.8 23.078 30.8C22.8923 30.8 22.7143 30.7262 22.583 30.5949C22.4517 30.4636 22.378 30.2856 22.378 30.0999C22.378 29.9143 22.4517 29.7362 22.583 29.605C22.7143 29.4737 22.8923 29.3999 23.078 29.3999C23.9698 29.3999 25.2144 29.0345 26.228 28.2239C27.2192 27.4315 27.978 26.2247 27.978 24.4999C27.978 24.3142 28.0518 24.1362 28.1831 24.0049C28.3143 23.8736 28.4924 23.7999 28.678 23.7999Z" fill="#402A32"/>
<path d="M19.4947 34.2161C20.2287 34.481 20.2287 35.519 19.4947 35.7839L12.7832 38.2057C12.24 38.4017 11.667 37.9993 11.667 37.4218L11.667 32.5782C11.667 32.0008 12.24 31.5983 12.7832 31.7943L19.4947 34.2161Z" fill="#524E4E"/>
<path d="M20.5053 35.7839C19.7713 35.519 19.7713 34.481 20.5053 34.2161L27.2168 31.7943C27.76 31.5983 28.333 32.0007 28.333 32.5782V37.4218C28.333 37.9992 27.76 38.4017 27.2168 38.2057L20.5053 35.7839Z" fill="#524E4E"/>
<rect x="17.5" y="36.6667" width="3.33333" height="5" rx="0.833333" transform="rotate(-90 17.5 36.6667)" fill="#2D2D2D"/>
</g>
<defs>
<clipPath id="clip0_637_2028">
<rect width="40" height="40" fill="white"/>
</clipPath>
</defs>
</svg>
