<svg width="39" height="39" viewBox="0 0 39 39" fill="none" xmlns="http://www.w3.org/2000/svg">
<g clip-path="url(#clip0_614_1798)">
<path d="M2.73477 28.5858C2.73477 31.6325 5.1413 34.125 8.08291 34.125H30.147C33.0886 34.125 35.4952 31.4946 35.4952 28.4465V1.95157C35.4952 0.177049 33.3248 -0.641961 32.1031 0.586554L25.9059 6.82468H12.5124L6.14731 0.586554C4.9188 -0.641961 2.73477 0.177049 2.73477 1.95157V28.5858Z" fill="#FFBA55"/>
<path d="M9.55982 8.08993L5.73777 11.639C5.05527 12.3215 3.82675 11.7755 3.82675 10.82V3.72188C3.82675 2.90287 5.05527 2.35686 5.73777 3.03937L9.55982 6.58841C9.96932 6.99792 9.96932 7.68043 9.55982 8.08993ZM28.7383 8.08993L32.5603 11.639C33.2429 12.3215 34.4714 11.7755 34.4714 10.82V3.72188C34.4714 2.90287 33.2429 2.35686 32.5603 3.03937L28.7383 6.58841C28.3288 6.99792 28.3288 7.68043 28.7383 8.08993Z" fill="#FF822D"/>
<path d="M0.992998 20.5471C0.912785 20.5061 0.825255 20.4815 0.735454 20.4745C0.645652 20.4675 0.555355 20.4783 0.46977 20.5064C0.384184 20.5345 0.305002 20.5792 0.236789 20.6381C0.168576 20.6969 0.112682 20.7686 0.0723277 20.8491C0.0319737 20.9297 0.00795861 21.0174 0.00166704 21.1072C-0.00462452 21.1971 0.00693187 21.2873 0.0356699 21.3727C0.0644079 21.458 0.109759 21.5369 0.169109 21.6046C0.228459 21.6724 0.300633 21.7277 0.381471 21.7675L5.84154 24.4975C5.92175 24.5385 6.00928 24.5632 6.09908 24.5701C6.18888 24.5771 6.27918 24.5663 6.36476 24.5382C6.45035 24.5101 6.52953 24.4654 6.59774 24.4066C6.66596 24.3477 6.72185 24.276 6.76221 24.1955C6.80256 24.1149 6.82657 24.0272 6.83287 23.9374C6.83916 23.8475 6.8276 23.7573 6.79886 23.6719C6.77013 23.5866 6.72477 23.5077 6.66542 23.44C6.60608 23.3722 6.5339 23.3169 6.45306 23.2772L0.992998 20.5471ZM0.992998 29.9575C0.912785 29.9985 0.825255 30.0232 0.735454 30.0302C0.645652 30.0372 0.555355 30.0263 0.46977 29.9983C0.384184 29.9702 0.305002 29.9254 0.236789 29.8666C0.168576 29.8078 0.112682 29.7361 0.0723277 29.6555C0.0319737 29.575 0.00795861 29.4873 0.00166704 29.3974C-0.00462452 29.3076 0.00693187 29.2174 0.0356699 29.132C0.0644079 29.0466 0.109759 28.9678 0.169109 28.9C0.228459 28.8323 0.300633 28.777 0.381471 28.7372L5.84154 26.0072C5.92175 25.9662 6.00928 25.9415 6.09908 25.9345C6.18888 25.9275 6.27918 25.9384 6.36476 25.9665C6.45035 25.9946 6.52953 26.0393 6.59774 26.0981C6.66596 26.1569 6.72185 26.2287 6.76221 26.3092C6.80256 26.3897 6.82657 26.4775 6.83287 26.5673C6.83916 26.6572 6.8276 26.7474 6.79886 26.8327C6.77013 26.9181 6.72477 26.9969 6.66542 27.0647C6.60608 27.1325 6.5339 27.1878 6.45306 27.2275L0.992998 29.9575ZM38.1528 20.8515C38.0717 20.6901 37.9299 20.5673 37.7585 20.5103C37.587 20.4532 37.4 20.4665 37.2383 20.5471L31.7782 23.2772C31.6952 23.3155 31.6208 23.3701 31.5593 23.4377C31.4978 23.5054 31.4506 23.5847 31.4203 23.6709C31.3901 23.7572 31.3775 23.8487 31.3833 23.9399C31.3891 24.0311 31.4131 24.1202 31.454 24.202C31.4948 24.2837 31.5517 24.3564 31.6212 24.4158C31.6907 24.4752 31.7715 24.5199 31.8586 24.5475C31.9458 24.5751 32.0376 24.5848 32.1286 24.5762C32.2196 24.5676 32.3079 24.5409 32.3884 24.4975L37.8484 21.7675C38.0099 21.6864 38.1326 21.5445 38.1897 21.3731C38.2467 21.2016 38.2335 21.0146 38.1528 20.8529M37.2383 29.9575C37.3187 30.0009 37.4071 30.0277 37.4981 30.0363C37.5891 30.0449 37.6809 30.0351 37.768 30.0076C37.8552 29.98 37.9359 29.9352 38.0054 29.8759C38.0749 29.8165 38.1318 29.7438 38.1727 29.662C38.2135 29.5803 38.2376 29.4912 38.2434 29.3999C38.2491 29.3087 38.2365 29.2173 38.2063 29.131C38.176 29.0448 38.1288 28.9655 38.0673 28.8978C38.0058 28.8302 37.9314 28.7756 37.8484 28.7372L32.3884 26.0072C32.3082 25.9662 32.2206 25.9415 32.1308 25.9345C32.041 25.9275 31.9507 25.9384 31.8651 25.9665C31.7796 25.9946 31.7004 26.0393 31.6322 26.0981C31.5639 26.1569 31.5081 26.2287 31.4677 26.3092C31.4273 26.3897 31.4033 26.4775 31.397 26.5673C31.3907 26.6572 31.4023 26.7474 31.431 26.8327C31.4598 26.9181 31.5051 26.9969 31.5645 27.0647C31.6238 27.1325 31.696 27.1878 31.7768 27.2275L37.2383 29.9575Z" fill="#FF6723"/>
<path d="M24.8982 6.32919C25.4645 6.83716 25.0846 7.77522 24.3244 7.74595L17.3728 7.47829C16.8103 7.45663 16.4397 6.88324 16.651 6.36141L18.4237 1.9842C18.635 1.46237 19.3001 1.30842 19.7192 1.68432L24.8982 6.32919Z" fill="#F871DA"/>
<path d="M25.2383 8.11612C24.6719 7.60816 25.0518 6.67009 25.812 6.69936L32.7636 6.96702C33.3262 6.98868 33.6967 7.56207 33.4854 8.0839L31.7128 12.4611C31.5014 12.9829 30.8363 13.1369 30.4172 12.761L25.2383 8.11612Z" fill="#F871DA"/>
<rect x="22.1989" y="7.81396" width="3.25" height="4.875" rx="0.8125" transform="rotate(-67.9533 22.1989 7.81396)" fill="#F70A8D"/>
<path d="M22.9599 15.1002C23.3836 14.3732 24.336 13.8919 25.2743 13.8692C26.2126 13.8465 27.19 14.281 27.6484 14.9838M15.2795 15.2863C14.8211 14.5806 13.8465 14.146 12.9082 14.1688C11.9699 14.1915 11.0146 14.6728 10.5909 15.397M11.3981 23.6554C11.4506 24.6867 11.9035 25.6567 12.6605 26.3589C13.4176 27.0611 14.4188 27.44 15.451 27.415C16.4833 27.39 17.465 26.963 18.1871 26.225C18.9092 25.4869 19.3147 24.4962 19.3172 23.4636C19.3427 24.5141 19.7844 25.5115 20.5452 26.2363C21.306 26.9612 22.3236 27.3541 23.3742 27.3286C24.4247 27.3032 25.422 26.8615 26.1469 26.1006C26.8717 25.3398 27.2646 24.3222 27.2392 23.2717" stroke="#402A32" stroke-width="1.3" stroke-linecap="round" stroke-linejoin="round"/>
<path d="M20.4658 21.125H17.7204C17.5902 21.125 17.4629 21.1601 17.3547 21.2257C17.2465 21.2914 17.1621 21.3847 17.1124 21.4938C17.0627 21.6029 17.0497 21.7229 17.0753 21.8387C17.1008 21.9545 17.1636 22.0608 17.2558 22.1442L18.6285 23.3878C18.7519 23.4997 18.9193 23.5625 19.0937 23.5625C19.2682 23.5625 19.4356 23.4997 19.559 23.3878L20.9317 22.1442C21.0239 22.0608 21.0868 21.9543 21.1123 21.8384C21.1378 21.7225 21.1247 21.6024 21.0748 21.4932C21.0249 21.3841 20.9404 21.2908 20.832 21.2252C20.7235 21.1597 20.5961 21.1248 20.4658 21.125Z" fill="#F70A8D"/>
</g>
<defs>
<clipPath id="clip0_614_1798">
<rect width="39" height="39" fill="white"/>
</clipPath>
</defs>
</svg>
