<svg width="39" height="41" viewBox="0 0 39 41" fill="none" xmlns="http://www.w3.org/2000/svg">
<path d="M38.7002 33.6833C38.7002 37.2456 35.8123 40.1335 32.25 40.1335H6.4502C2.88791 40.1335 0 37.2456 0 33.6833V18.6335C5.66963e-06 12.3006 5.13386 7.16675 11.4668 7.16675H27.2334C33.5663 7.16675 38.7002 12.3006 38.7002 18.6335V33.6833Z" fill="#9BD26B"/>
<path d="M28.0782 37.2671C33.0949 40.4922 30.2282 40.1338 30.2282 40.1338H13.7446C13.7446 40.1338 9.44677 39.8262 7.29456 38.3421C4.70565 36.5569 2.27784 34.4004 2.99451 31.5337C3.71118 28.667 7.28935 28.1046 10.5196 26.8753C14.3484 25.4183 18.8887 25.442 20.9114 25.442C22.9341 25.442 25.9281 24.7253 25.9281 24.0086C25.9281 23.292 25.2115 22.5753 22.3447 22.2169C19.478 21.8586 16.253 22.2169 13.7446 21.5003C11.2363 20.7836 8.5697 20.1539 8.36958 17.5585C8.19312 15.2702 10.5196 13.6168 11.953 12.9002C13.3863 12.1835 21.001 10.3918 21.2697 9.31678C21.5385 8.24177 16.6113 5.7334 16.6113 5.7334C16.6113 5.7334 17.6725 5.20188 18.403 5.01673C20.1717 4.56844 23.0614 5.37507 23.0614 5.37507C23.0614 5.37507 26.2865 7.52509 26.6448 8.60011C27.0031 9.67512 27.2432 10.7501 25.2115 12.1835C23.1797 13.6168 14.8197 15.4085 15.178 16.4835C15.5363 17.5585 19.8364 17.5585 19.8364 17.5585C19.8364 17.5585 30.2282 18.6336 32.0199 19.7086C33.8116 20.7836 35.9616 22.9336 34.8866 25.442C33.8116 27.9503 30.2282 29.742 28.0782 30.1004C25.9281 30.4587 12.3113 30.817 13.7446 32.6087C15.178 34.4004 23.0614 34.0421 28.0782 37.2671Z" fill="#F4E7B9" stroke="#F4E7B9" stroke-width="0.716676"/>
<path d="M31.251 10.9673L32.6837 10.9259L32.7458 13.0751C32.7572 13.4707 32.4458 13.8007 32.0501 13.8121V13.8121C31.6545 13.8236 31.3245 13.5121 31.313 13.1164L31.251 10.9673Z" fill="#886936"/>
<path d="M31.5059 1.25934C31.6581 1.24972 31.7978 1.27998 31.9346 1.32477C32.0665 1.36799 32.2207 1.43386 32.3994 1.50934C32.6375 1.60994 32.9071 1.80482 33.1689 2.04059C33.4364 2.28146 33.7179 2.58393 33.9756 2.92145C34.4824 3.58534 34.9405 4.43581 34.9932 5.25446C35.0214 5.69659 34.8984 6.07093 34.6582 6.36871C34.5942 6.44798 34.5227 6.51963 34.4463 6.58551C34.536 6.70559 34.6254 6.82933 34.7109 6.95758C35.2719 7.79909 35.7596 8.86262 35.7598 9.85602C35.7597 10.3925 35.5819 10.8351 35.2686 11.1763C34.9636 11.508 34.5538 11.7183 34.125 11.8511C33.2736 12.1147 32.2282 12.1091 31.3779 12.023C31.2152 12.0065 31.0456 11.9939 30.8691 11.981C30.6948 11.9683 30.5121 11.9554 30.332 11.9381C29.9747 11.9036 29.5969 11.8492 29.2539 11.733C28.9074 11.6155 28.5701 11.4257 28.3232 11.1031C28.0742 10.7775 27.9512 10.3613 27.9512 9.85602C27.9513 8.86261 28.439 7.7991 29 6.95758C29.0287 6.91461 29.0587 6.87277 29.0879 6.83063C29.0319 6.78451 28.9785 6.73342 28.9287 6.67633C28.7062 6.42114 28.5825 6.08402 28.5557 5.66754C28.5033 4.84894 28.8498 3.94737 29.2676 3.22418C29.48 2.85661 29.7197 2.52066 29.9541 2.24762C30.1837 1.98029 30.4261 1.75192 30.6494 1.62164C30.8172 1.52387 30.9625 1.43821 31.0879 1.37848C31.2179 1.31658 31.3535 1.26912 31.5059 1.25934Z" fill="#30AD6F"/>
<path d="M7.16699 9.35817L8.59975 9.31679L8.66182 11.4659C8.67324 11.8616 8.36177 12.1916 7.96613 12.203V12.203C7.57048 12.2144 7.24049 11.9029 7.22906 11.5073L7.16699 9.35817Z" fill="#886936"/>
<path d="M7.92871 0C8.08135 0.000123871 8.21884 0.039295 8.35254 0.0927734C8.48143 0.14435 8.63112 0.219857 8.80469 0.306641C9.03593 0.422317 9.29273 0.634518 9.53906 0.886719C9.79055 1.14421 10.0516 1.46411 10.2871 1.81738C10.7504 2.51245 11.1533 3.39055 11.1533 4.21094C11.1532 4.59933 11.04 4.9274 10.8379 5.19238C11.2423 5.89326 11.5566 6.7034 11.5566 7.46973C11.5565 7.96831 11.391 8.37925 11.0996 8.69629C10.8161 9.00464 10.4358 9.20077 10.0371 9.32422C9.24589 9.56915 8.27448 9.56339 7.48438 9.4834C7.33311 9.46808 7.17579 9.45627 7.01172 9.44434C6.84963 9.43255 6.68005 9.42042 6.5127 9.4043C6.18063 9.3723 5.82951 9.32186 5.51074 9.21387C5.18891 9.10474 4.87586 8.92836 4.64648 8.62891C4.41495 8.32637 4.29991 7.9393 4.2998 7.46973C4.2998 6.71521 4.60376 5.91794 4.99902 5.22461C4.80139 4.95811 4.7032 4.62003 4.70312 4.21094C4.70312 3.39049 5.10602 2.51248 5.56934 1.81738C5.80488 1.46407 6.06587 1.14422 6.31738 0.886719C6.56377 0.634481 6.82048 0.422276 7.05176 0.306641C7.22535 0.219847 7.37501 0.144336 7.50391 0.0927734C7.63775 0.0392537 7.77586 -1.31063e-06 7.92871 0Z" fill="#30AD6F"/>
</svg>
