<svg width="36" height="36" viewBox="0 0 36 36" fill="none" xmlns="http://www.w3.org/2000/svg">
<g clip-path="url(#clip0_637_2069)">
<path d="M5.12332 5H11.1233C12.2273 5 13.0003 4.896 13.0003 6V4C13.0003 2.896 12.2273 2 11.1233 2H3.12332C1.12332 2 -0.459679 4.125 0.123321 7C0.123321 7 1.91432 16.375 2.04032 16.958C2.37332 18.5 4.16432 20 6.08132 20H13.0393C14.1443 20 13.0003 18.104 13.0003 17V15C13.0003 16.104 12.2273 17 11.1233 17H7.12332C6.01932 17 5.29032 15.958 5.12332 15C4.95632 14.042 3.53932 7.667 3.53932 7.667C3.20632 5.75 4.01832 5 5.12332 5ZM30.9353 5H24.9353C23.8313 5 22.0003 4.896 22.0003 6V4C22.0003 2.896 23.8313 2 24.9353 2H32.9353C34.9353 2 36.5193 4.125 35.9353 7C35.9353 7 34.3023 16.419 34.1643 17C33.8103 18.5 32.1223 20 30.1643 20H23.0183C21.9143 20 22.0003 18.104 22.0003 17V15C22.0003 16.104 23.8313 17 24.9353 17H28.9353C30.0393 17 30.7693 15.958 30.9353 15C31.1013 14.042 32.5193 7.667 32.5193 7.667C32.8513 5.75 32.0403 5 30.9353 5ZM20.8323 22C20.8323 15.042 18.1233 22 18.1233 22C18.1233 22 15.1233 15.042 15.1233 22C15.1233 28.958 11.8323 32 11.8323 32H24.1243C24.1233 32 20.8323 28.958 20.8323 22Z" fill="#F8BA47"/>
<path d="M29.123 6.577C29.123 13.352 22.353 24.769 18.123 24.769C13.893 24.769 7.12305 13.352 7.12305 6.577C7.12305 1.382 8.12305 0.257997 10.123 0.257997C11.497 0.257997 16.148 0.230997 18.123 0.230997L25.123 0.229997C28.04 0.228997 29.123 0.913997 29.123 6.577Z" fill="#FFD656"/>
<path d="M27 33C27 34.104 27.227 35 26.123 35H10.123C9.018 35 9 34.104 9 33V32C9 30.896 10.164 30 11.206 30H25.123C26.165 30 27 30.896 27 32V33Z" fill="#C1694F"/>
<path d="M29 34.625C29 35.385 29.165 36 27.748 36H8.498C7.206 36 7 35.385 7 34.625V34.375C7 33.615 7.738 33 8.498 33H27.748C28.507 33 29 33.615 29 34.375V34.625Z" fill="#C1694F"/>
</g>
<defs>
<clipPath id="clip0_637_2069">
<rect width="36" height="36" fill="white"/>
</clipPath>
</defs>
</svg>
