<svg width="40" height="40" viewBox="0 0 40 40" fill="none" xmlns="http://www.w3.org/2000/svg">
<g clip-path="url(#clip0_637_2057)">
<path d="M36.3171 12.6584H2.05046C1.60843 12.6584 1.1845 12.8339 0.871944 13.1465C0.559384 13.4591 0.383789 13.883 0.383789 14.325V36.3167H36.3171C36.7457 36.3178 37.1703 36.2343 37.5666 36.0711C37.9629 35.9078 38.3231 35.668 38.6265 35.3653C38.9299 35.0626 39.1707 34.7031 39.335 34.3072C39.4992 33.9113 39.5838 33.4869 39.5838 33.0583V15.9167C39.5838 15.4881 39.4992 15.0637 39.335 14.6678C39.1707 14.272 38.9299 13.9124 38.6265 13.6097C38.3231 13.3071 37.9629 13.0672 37.5666 12.904C37.1703 12.7407 36.7457 12.6573 36.3171 12.6584Z" fill="#E79165"/>
<path d="M33.0586 29.7917V0.416672L15.1086 0.416672L15.1086 29.7917H33.0586Z" fill="#41B85A"/>
<path d="M16.7334 27.3417V4.49999C17.3803 4.49559 17.9992 4.23552 18.455 3.77653C18.9109 3.31755 19.1667 2.69689 19.1667 2.04999H28.9751C28.9751 2.69977 29.2332 3.32294 29.6927 3.7824C30.1521 4.24186 30.7753 4.49999 31.4251 4.49999V27.3417C30.7753 27.3417 30.1521 27.5998 29.6927 28.0592C29.2332 28.5187 28.9751 29.1419 28.9751 29.7917H19.1667C19.1667 29.1448 18.9109 28.5241 18.455 28.0651C17.9992 27.6061 17.3803 27.3461 16.7334 27.3417Z" fill="#B5E08C"/>
<path d="M10.2079 18.3667C14.2626 18.3667 17.5495 15.0797 17.5495 11.025C17.5495 6.97033 14.2626 3.68335 10.2079 3.68335C6.15319 3.68335 2.86621 6.97033 2.86621 11.025C2.86621 15.0797 6.15319 18.3667 10.2079 18.3667Z" fill="#FFDE76"/>
<path d="M10.2083 16.7333C13.361 16.7333 15.9167 14.1776 15.9167 11.025C15.9167 7.87237 13.361 5.31667 10.2083 5.31667C7.05571 5.31667 4.5 7.87237 4.5 11.025C4.5 14.1776 7.05571 16.7333 10.2083 16.7333Z" fill="#FFBA55"/>
<path d="M9.80023 9.39165H12.6586V7.72499H10.9919V6.05832H9.32522V7.72499C9.04417 7.78283 8.77838 7.89904 8.54507 8.06609C8.31175 8.23313 8.11611 8.4473 7.97079 8.69474C7.82547 8.94217 7.73372 9.21735 7.70147 9.50249C7.66921 9.78762 7.69718 10.0763 7.78356 10.35C7.9253 10.7699 8.19727 11.1337 8.55994 11.3885C8.92262 11.6433 9.3571 11.7757 9.80023 11.7667H10.5502C10.6042 11.7655 10.6578 11.7753 10.7078 11.7954C10.7579 11.8155 10.8033 11.8456 10.8415 11.8837C10.8796 11.9219 10.9097 11.9673 10.9298 12.0174C10.9499 12.0674 10.9597 12.1211 10.9586 12.175C10.9586 12.2833 10.9155 12.3871 10.839 12.4637C10.7624 12.5403 10.6585 12.5833 10.5502 12.5833H7.75856V14.25H9.42523V15.9167H11.0919V14.25C11.3616 14.1827 11.6149 14.0615 11.8365 13.8937C12.0581 13.7258 12.2434 13.5148 12.3813 13.2734C12.5191 13.032 12.6066 12.7652 12.6385 12.489C12.6704 12.2129 12.6461 11.9331 12.5669 11.6667C12.4252 11.2467 12.1532 10.8829 11.7905 10.6281C11.4278 10.3734 10.9934 10.2409 10.5502 10.25H9.80023C9.68972 10.25 9.58374 10.2061 9.5056 10.1279C9.42746 10.0498 9.38356 9.94383 9.38356 9.83332C9.38356 9.72281 9.42746 9.61683 9.5056 9.53869C9.58374 9.46055 9.68972 9.41665 9.80023 9.41665V9.39165Z" fill="white"/>
<path d="M24.0833 19.1833C27.236 19.1833 29.7917 17.3552 29.7917 15.1C29.7917 12.8448 27.236 11.0167 24.0833 11.0167C20.9307 11.0167 18.375 12.8448 18.375 15.1C18.375 17.3552 20.9307 19.1833 24.0833 19.1833Z" fill="#41B85A"/>
<path d="M24.9004 8.57502V3.68335H23.2671V8.57502H24.9004Z" fill="#41B85A"/>
<path d="M24.8916 26.525V21.6333H23.2583V26.525H24.8916Z" fill="#B5E08C"/>
<path d="M36.3171 19.1667V36.3167C36.3182 36.7452 36.2348 37.1698 36.0715 37.5661C35.9082 37.9624 35.6684 38.3226 35.3657 38.626C35.0631 38.9295 34.7035 39.1702 34.3076 39.3345C33.9118 39.4988 33.4874 39.5833 33.0588 39.5833H2.05046C1.60843 39.5833 1.18451 39.4077 0.871944 39.0952C0.559384 38.7826 0.383789 38.3587 0.383789 37.9167V14.2917C0.383789 14.7337 0.559384 15.1576 0.871944 15.4702C1.18451 15.7827 1.60843 15.9583 2.05046 15.9583H33.0588C33.9137 15.9604 34.7338 16.2975 35.3429 16.8973C35.9521 17.4971 36.3019 18.3119 36.3171 19.1667Z" fill="#FFBF8E"/>
<path d="M33.8751 23.2667H39.5834V29.7917H33.8751C33.0087 29.7917 32.1778 29.4475 31.5652 28.8349C30.9526 28.2223 30.6084 27.3914 30.6084 26.525C30.6084 25.6586 30.9526 24.8277 31.5652 24.2151C32.1778 23.6025 33.0087 23.2583 33.8751 23.2583V23.2667Z" fill="#E8A374"/>
</g>
<defs>
<clipPath id="clip0_637_2057">
<rect width="40" height="40" fill="white"/>
</clipPath>
</defs>
</svg>
